<?xml version="1.0" encoding="UTF-8" standalone="no"?>
<!-- Created with Inkscape (http://www.inkscape.org/) -->

<svg
   xmlns:dc="http://purl.org/dc/elements/1.1/"
   xmlns:cc="http://creativecommons.org/ns#"
   xmlns:rdf="http://www.w3.org/1999/02/22-rdf-syntax-ns#"
   xmlns:svg="http://www.w3.org/2000/svg"
   xmlns="http://www.w3.org/2000/svg"
   xmlns:sodipodi="http://sodipodi.sourceforge.net/DTD/sodipodi-0.dtd"
   xmlns:inkscape="http://www.inkscape.org/namespaces/inkscape"
   version="1.1"
   id="svg2"
   xml:space="preserve"
   width="673.55005"
   height="675.00018"
   viewBox="0 0 673.55005 675.00018"
   sodipodi:docname="icon.svg"
   inkscape:version="0.92.4 (5da689c313, 2019-01-14)"><metadata
     id="metadata8"><rdf:RDF><cc:Work
         rdf:about=""><dc:format>image/svg+xml</dc:format><dc:type
           rdf:resource="http://purl.org/dc/dcmitype/StillImage" /><dc:title></dc:title></cc:Work></rdf:RDF></metadata><defs
     id="defs6" /><sodipodi:namedview
     pagecolor="#ffffff"
     bordercolor="#666666"
     borderopacity="1"
     objecttolerance="10"
     gridtolerance="10"
     guidetolerance="10"
     inkscape:pageopacity="0"
     inkscape:pageshadow="2"
     inkscape:window-width="2256"
     inkscape:window-height="1394"
     id="namedview4"
     showgrid="false"
     inkscape:zoom="0.34962953"
     inkscape:cx="-240.97937"
     inkscape:cy="337.50009"
     inkscape:window-x="-12"
     inkscape:window-y="-12"
     inkscape:window-maximized="1"
     inkscape:current-layer="g10" /><g
     id="g10"
     inkscape:groupmode="layer"
     inkscape:label="icon"
     transform="matrix(1.3333333,0,0,1.3333333,0,1.2875005e-5)"><g
       id="g12"><path
         d="m 374.91,21.777 c -3.863,1.461 -11.492,6.028 -16.863,10.032 -5.133,3.863 -12.902,11.539 -15.774,15.589 -4.382,6.215 -12.765,22.184 -14.98,28.633 -0.848,2.356 -1.836,4.571 -2.211,4.852 -0.66,0.566 -2.922,0.047 -9.09,-2.117 -1.976,-0.661 -5.179,-5.133 -5.512,-7.774 -0.14,-0.988 0.473,-4.801 1.461,-9.277 3.016,-13.61 3.063,-15.871 0.567,-20.863 -1.789,-3.485 -3.77,-3.957 -7.914,-1.836 -3.672,1.789 -5.321,6.359 -7.016,18.98 -0.66,5.227 -0.941,9.277 -0.801,13.234 l 0.141,5.7 2.309,4.66 c 1.742,3.484 3.011,5.371 5.179,7.488 3.391,3.344 5.981,4.426 13.657,5.699 l 4.992,0.848 -0.141,7.113 c -0.094,7.016 -0.094,7.11 1.414,10.5 2.402,5.559 5.652,10.364 8.195,12.2 1.317,0.894 2.309,2.023 2.309,2.496 0,1.976 -2.027,10.644 -3.344,14.457 -2.875,8.195 -6.359,14.129 -14.414,24.492 -8.383,10.785 -15.023,17.894 -23.125,24.629 -4.191,3.535 -8.523,7.301 -9.652,8.383 -1.981,1.98 -1.981,2.027 -1.981,5.464 0,3.817 0.473,4.758 2.922,5.793 5.414,2.262 12.481,-1.129 22.606,-10.879 9.844,-9.418 20.676,-22.511 26.609,-32.121 5.699,-9.23 9.09,-17.14 10.973,-25.476 0.66,-2.922 1.32,-5.699 1.461,-6.125 0.894,-2.684 1.414,-3.531 2.59,-4.145 1.601,-0.847 3.109,-0.375 9.421,2.875 12.29,6.356 16.434,16.485 13.844,33.86 -2.543,17.191 -7.062,29.105 -16.34,43.093 -6.972,10.504 -10.738,15.118 -18.793,23.125 -9.371,9.325 -9.843,10.125 -7.722,14.036 1.742,3.156 2.636,3.863 5.133,4.144 4.05,0.473 6.308,-0.187 8.898,-2.59 2.687,-2.543 13.332,-15.164 20.82,-24.773 10.594,-13.563 13.657,-19.215 17.141,-31.602 3.437,-12.293 4.758,-21.097 5.086,-33.672 0.285,-10.976 -0.281,-16.156 -2.258,-21.382 -1.934,-5.18 -8.336,-11.821 -16.531,-17.051 -5.699,-3.672 -7.395,-4.332 -15.59,-6.028 -8.856,-1.882 -10.785,-2.73 -13.188,-5.886 -2.214,-2.969 -2.355,-3.625 -1.742,-8.664 0.801,-6.786 -0.328,-6.125 9.559,-5.746 17.144,0.609 22.562,1.41 30.004,4.472 5.461,2.262 15.304,7.817 20.25,11.446 5.461,4.003 9.75,6.167 11.492,5.699 0.66,-0.145 1.93,-1.086 2.824,-2.074 1.274,-1.415 1.695,-2.356 1.93,-4.333 0.707,-5.605 -1.649,-8.949 -10.36,-14.789 -9.136,-6.074 -21.429,-11.207 -31.32,-13.093 -2.211,-0.422 -9.793,-1.176 -16.859,-1.649 -7.063,-0.469 -12.953,-0.988 -13.094,-1.082 -0.375,-0.422 2.688,-8.523 4.852,-12.715 5.179,-10.078 12.433,-19.121 19.453,-24.347 1.929,-1.461 6.168,-4.145 9.418,-5.938 3.203,-1.836 6.781,-4.144 7.863,-5.226 1.98,-1.883 2.027,-1.977 2.027,-5.086 0,-3.77 -0.707,-5.086 -3.343,-6.121 -2.497,-0.993 -3.864,-0.946 -7.442,0.468 z"
         style="fill:#000000;fill-opacity:1;fill-rule:nonzero;stroke:none"
         id="path14"
         inkscape:connector-curvature="0" /><path
         d="m 382.539,262.398 c -1.32,0.61 -2.309,1.551 -3.156,2.965 -2.356,4.051 -2.543,5.325 -3.063,19.075 -0.281,7.207 -0.75,17.332 -1.035,22.511 -0.613,10.785 -0.375,12.906 2.168,18.039 2.024,3.957 5.559,7.582 10.125,10.266 1.93,1.133 3.719,2.074 4.004,2.074 0.234,0 0.754,0.188 1.129,0.422 0.473,0.332 0.187,1.18 -1.414,4.285 -1.129,2.168 -2.731,4.617 -3.578,5.512 -1.508,1.461 -5.653,3.91 -6.735,3.91 -0.281,0 -0.468,-2.027 -0.468,-5.559 0,-8.195 -1.274,-13.14 -4.145,-16.25 -1.367,-1.41 -2.781,-1.597 -4.805,-0.562 -1.648,0.848 -2.875,2.824 -4.285,7.062 -0.992,2.922 -1.086,4.051 -0.992,10.032 l 0.098,6.687 -1.039,-0.234 c -0.61,-0.141 -2.118,-0.469 -3.438,-0.707 -4.144,-0.895 -6.262,-2.211 -7.488,-4.66 -1.129,-2.168 -2.918,-7.961 -2.59,-8.243 0.094,-0.046 1.461,-0.8 3.016,-1.695 10.453,-5.746 15.445,-13.473 16.625,-25.715 0.562,-5.793 -0.942,-35.699 -2.028,-40.879 -1.507,-7.16 -6.355,-10.691 -9.984,-7.254 -2.449,2.309 -3.059,8.665 -1.977,20.204 0.329,3.109 0.469,5.699 0.375,5.793 -0.093,0.093 -2.023,0.332 -4.238,0.519 l -4.051,0.328 -0.281,-9.09 c -0.281,-10.125 -0.894,-13.093 -3.109,-15.589 -1.035,-1.176 -1.742,-1.504 -3.059,-1.504 -2.355,0 -4.051,1.363 -5.699,4.66 l -1.414,2.828 -0.141,10.926 -0.14,10.972 -5.278,2.496 c -6.5,3.11 -7.347,4.426 -5.98,9.372 0.754,2.683 2.355,3.675 5.933,3.675 1.602,0 3.485,-0.191 4.145,-0.472 l 1.226,-0.469 v 21.617 l -4.898,2.399 c -6.359,3.109 -7.16,3.863 -7.582,7.207 -0.426,3.437 0.328,4.945 3.059,6.312 l 2.121,1.035 4.472,-1.129 c 2.45,-0.613 4.477,-1.086 4.524,-1.039 0,0.047 0.328,1.133 0.609,2.449 2.594,10.551 11.492,17.665 24.539,19.594 3.344,0.469 3.817,0.66 4.051,1.602 0.141,0.613 0.141,1.554 -0.047,2.117 -0.426,1.32 -4.004,4.098 -9.324,7.254 -11.68,6.922 -18.418,15.637 -21.289,27.644 -1.602,6.782 -2.024,12.625 -2.356,32.215 -0.328,17.332 -0.093,20.957 1.461,25.809 0.989,2.922 3.203,5.273 5.746,5.933 2.59,0.707 4.145,0 5.559,-2.496 2.305,-4.05 2.496,-10.218 1.129,-30.422 -1.18,-16.816 2.117,-32.828 8.195,-39.89 1.789,-2.027 6.547,-5.84 8.852,-7.02 l 1.367,-0.707 -0.328,44.18 c -0.379,47.281 -0.332,48.461 1.93,53.121 1.367,2.828 3.156,4.004 5.98,4.004 2.355,0 3.816,-0.848 4.992,-2.965 0.754,-1.414 0.848,-5.324 1.274,-50.254 l 0.468,-48.695 3.438,3.199 c 3.863,3.629 8.008,9.563 9.797,13.942 2.875,7.16 3.769,14.128 4.898,39.468 1.082,23.735 1.129,24.114 4.051,25.336 3.484,1.461 6.547,-0.422 8.855,-5.414 0.942,-2.074 0.989,-2.875 0.989,-17.711 -0.047,-26.609 -2.075,-38.476 -8.95,-52.746 -2.73,-5.558 -7.628,-12.574 -10.171,-14.508 -0.895,-0.656 -4.051,-2.445 -7.02,-4 l -5.414,-2.828 -0.141,-3.058 -0.144,-3.11 2.027,-0.519 c 4.379,-1.176 12.008,-3.907 14.129,-5.039 3.25,-1.789 4.613,-4.004 8.336,-13.797 l 1.93,-4.946 h 6.218 c 5.747,0 6.403,-0.093 8.004,-1.085 2.028,-1.27 2.782,-3.204 2.215,-5.7 -0.754,-3.39 -3.25,-5.32 -9.23,-7.156 -3.11,-0.941 -3.438,-1.18 -3.438,-2.262 0,-1.507 0.848,-13.328 1.223,-17.379 l 0.285,-2.964 2.07,0.328 c 3.016,0.425 6.075,-0.141 7.723,-1.508 1.18,-1.035 1.414,-1.555 1.414,-3.297 0,-4.426 -3.297,-7.723 -9.183,-9.184 l -2.262,-0.562 0.285,-9.469 c 0.328,-10.312 -0.094,-13.894 -2.074,-17.754 -1.27,-2.543 -1.602,-2.781 -3.91,-2.781 -1.504,0 -2.118,0.332 -3.579,1.84 -3.859,4.051 -4.566,7.629 -3.859,19.121 0.234,3.859 0.375,7.156 0.281,7.25 -0.093,0.098 -2.355,-0.094 -4.992,-0.469 l -4.851,-0.66 -0.141,-3.766 c -0.094,-2.074 0.187,-7.347 0.66,-11.73 0.895,-9.09 0.754,-9.652 -2.355,-10.832 -2.45,-0.941 -2.45,-0.941 -4.852,0.144 z m 11.774,40.266 c 2.261,0.328 4.144,0.707 4.238,0.801 0.187,0.234 -1.649,19.449 -1.883,19.734 -0.094,0.094 -1.555,-0.472 -3.203,-1.367 -2.684,-1.367 -3.203,-1.836 -4.332,-4.191 -1.18,-2.403 -1.32,-3.157 -1.274,-7.395 0,-5.98 0.426,-8.242 1.508,-8.242 0.426,0 2.637,0.285 4.946,0.66 z m -35.934,2.731 c -0.047,7.773 -1.461,11.726 -5.652,16.296 l -2.309,2.45 -0.328,-1.649 c -0.141,-0.894 -0.328,-5.277 -0.379,-9.75 l -0.047,-8.101 3.535,-0.801 c 5.414,-1.176 5.18,-1.27 5.18,1.555 z"
         style="fill:#000000;fill-opacity:1;fill-rule:nonzero;stroke:none"
         id="path16"
         inkscape:connector-curvature="0" /><path
         d="m 276.195,264.141 c -2.168,1.129 -2.968,2.023 -3.816,4.238 -1.551,4.098 0.191,13.703 3.109,17.234 1.367,1.649 6.453,4.617 7.914,4.617 0.61,0 0.657,3.016 0.375,24.348 -0.281,20.16 -0.66,29.86 -2.214,55.715 l -1.883,31.32 -3.578,24.727 c -3.625,25.055 -3.957,28.305 -3.016,30.094 0.801,1.461 2.969,2.402 5.512,2.402 2.023,0 2.402,-0.188 4.238,-2.121 2.355,-2.449 5.793,-9.231 7.301,-14.363 0.847,-2.918 1.082,-5.414 1.363,-14.364 0.191,-5.98 0.707,-13.468 1.133,-16.718 0.422,-3.25 1.508,-17.993 2.402,-32.735 1.317,-21.191 1.789,-32.824 2.211,-55.336 0.285,-15.683 0.567,-28.59 0.66,-28.636 0.235,-0.329 5.653,1.414 7.114,2.355 3.437,2.074 3.953,9.418 2.543,34.523 -0.52,9.559 -1.321,29.907 -1.743,45.211 -0.66,23.078 -0.66,30.895 -0.238,46.106 0.52,17.57 0.613,18.933 2.641,33.676 2.871,20.629 4.425,25.902 8.382,28.304 1.743,1.082 5.133,1.223 6.922,0.328 1.508,-0.75 2.825,-3.39 2.825,-5.601 0,-0.992 -1.27,-10.832 -2.778,-21.902 l -2.777,-20.157 -0.52,-18.84 c -0.894,-32.402 -0.707,-50.484 0.895,-80.062 0.754,-14.504 1.414,-27.879 1.414,-29.672 0,-4.566 -1.981,-13.703 -3.77,-17.566 -1.648,-3.485 -3.812,-6.028 -7.109,-8.149 -1.934,-1.222 -3.344,-1.551 -12.668,-3.012 -5.793,-0.894 -10.976,-1.929 -11.539,-2.308 -1.18,-0.754 -1.84,-2.402 -3.77,-8.856 -1.316,-4.472 -2.214,-5.554 -4.71,-5.554 -0.75,0 -2.024,0.328 -2.825,0.754 z"
         style="fill:#000000;fill-opacity:1;fill-rule:nonzero;stroke:none"
         id="path18"
         inkscape:connector-curvature="0" /><path
         d="m 150.23,20.996 c -7.488,0.234 -19.542,1.129 -24.632,1.836 -9.278,1.273 -14.41,3.535 -19.731,8.574 -4.617,4.379 -6.972,9.137 -8.429,17.094 -0.946,4.945 -0.946,88.023 -0.051,92.969 1.367,7.441 5.183,15.824 8.902,19.64 3.676,3.766 10.316,6.168 19.453,7.016 12.242,1.18 24.207,-0.895 34.379,-5.887 2.309,-1.129 3.391,-1.508 3.531,-1.082 0.141,0.328 2.215,7.489 4.711,15.965 2.45,8.477 5.461,17.801 6.641,20.723 2.871,7.062 17.566,36.359 20.535,40.972 2.777,4.379 5.84,7.254 8.051,7.676 2.355,0.473 5.23,-0.469 6.64,-2.164 3.11,-3.676 2.309,-6.027 -8.382,-24.445 -12.008,-20.625 -12.293,-21.192 -17.66,-38.289 -5.606,-17.66 -12.762,-49.215 -12.762,-56.043 0,-0.188 5.98,-0.281 13.328,-0.235 12.996,0.141 13.328,0.141 15.258,-0.945 2.777,-1.457 3.625,-2.871 3.297,-5.601 -0.332,-3.016 -2.075,-4.618 -5.559,-5.04 -3.578,-0.425 -18.648,-1.179 -24.066,-1.226 h -4.567 l -0.238,-1.555 c -0.422,-2.59 -2.824,-43.609 -2.59,-43.844 0.094,-0.144 4.336,-0.566 9.375,-0.992 5.039,-0.422 9.891,-0.988 10.738,-1.222 0.895,-0.282 3.297,-1.461 5.368,-2.637 5.933,-3.344 7.816,-7.113 8.242,-16.625 0.375,-8.477 -1.082,-13.941 -4.805,-17.664 -5.746,-5.695 -19.262,-7.817 -44.977,-6.969 z m 2.075,15.777 c 0.14,1.649 0.375,6.266 0.562,10.317 l 0.285,7.344 -5.324,0.332 c -6.594,0.375 -10.219,1.175 -12.621,2.777 -3.297,2.215 -4.144,3.816 -5.699,10.879 -1.555,7.16 -1.742,7.629 -4.192,10.551 -2.261,2.73 -6.261,4.613 -11.398,5.414 l -4.098,0.66 -0.281,-2.164 c -0.613,-4.57 -0.848,-23.41 -0.375,-28.305 0.754,-6.879 1.555,-9.328 4.145,-12.199 5.461,-6.074 9.746,-7.348 26.796,-8.055 4.661,-0.187 9.231,-0.328 10.172,-0.375 l 1.743,-0.094 z m 26.558,-1.976 c 6.313,0.848 8.242,3.058 8.289,9.418 0,3.769 -0.609,5.512 -2.636,7.394 -1.508,1.461 -4.286,1.977 -12.008,2.356 l -6.735,0.281 v -7.723 c 0,-4.238 -0.14,-8.855 -0.332,-10.269 l -0.281,-2.496 5.367,0.332 c 2.969,0.14 6.692,0.469 8.336,0.707 z m -26.09,34.004 c 0.426,3.437 2.829,42.715 2.59,42.949 -0.093,0.094 -7.394,0.426 -16.199,0.707 -8.809,0.281 -19.027,0.66 -22.75,0.801 l -6.734,0.281 0.14,-7.441 0.145,-7.438 5.887,-1.461 c 12.339,-3.109 14.882,-4.238 18.98,-8.668 3.012,-3.25 4.238,-6.074 5.273,-12.195 0.942,-5.512 1.508,-6.926 2.872,-7.82 0.941,-0.661 4.57,-1.317 8.761,-1.649 0.614,-0.047 0.848,0.473 1.035,1.934 z m 4.899,64.519 c 0.566,4.758 1.32,9.516 1.601,10.645 0.707,2.496 0.614,2.59 -5.179,5.226 -7.867,3.582 -10.125,4.004 -22.465,4.004 -10.363,0.047 -10.926,0 -13.281,-1.035 -4.051,-1.836 -4.098,-1.93 -6.266,-13.754 -1.082,-5.84 -2.023,-10.926 -2.07,-11.301 -0.047,-0.519 0.562,-0.753 2.543,-0.847 3.011,-0.188 35.886,-1.32 40.738,-1.461 l 3.297,-0.047 z"
         style="fill:#000000;fill-opacity:1;fill-rule:nonzero;stroke:none"
         id="path20"
         inkscape:connector-curvature="0" /><path
         d="m 185.789,255.492 c -5.18,0.754 -13.848,1.602 -19.309,1.883 -38.289,1.98 -42.625,2.449 -49.64,4.945 -7.348,2.637 -9.844,5.039 -13.988,13.141 l -2.637,5.227 0.187,5.89 c 0.188,4.942 0.473,6.543 1.649,9.887 0.754,2.215 2.168,5.277 3.156,6.738 4.852,7.297 17.285,14.738 23.973,14.363 l 2.449,-0.14 1.555,-3.016 c 1.742,-3.484 1.882,-5.039 0.609,-7.488 -1.129,-2.121 -2.258,-3.203 -10.645,-9.984 -3.625,-2.922 -6.968,-5.84 -7.39,-6.547 -0.613,-0.848 -0.848,-2.168 -0.848,-4.52 0,-4.098 0.988,-6.172 3.672,-7.68 1.836,-1.035 9.75,-3.058 14.27,-3.671 l 2.168,-0.282 0.562,4.379 c 0.848,6.074 3.016,14.551 4.664,18.039 2.543,5.367 7.254,9.512 15.402,13.61 7.536,3.769 12.856,4.898 15.778,3.39 2.023,-1.035 2.258,-1.929 1.836,-5.886 -0.426,-4.004 0.187,-3.25 -7.961,-9.043 -6.121,-4.332 -9.371,-7.536 -11.727,-11.446 -1.789,-2.965 -4.613,-10.078 -4.851,-12.242 l -0.141,-1.414 7.066,-0.566 c 3.907,-0.282 8.383,-0.563 9.985,-0.563 l 2.918,-0.047 v 4.567 c -0.047,7.015 0.988,10.457 4.57,15.496 2.824,4 7.442,8.144 13.984,12.433 7.727,5.133 9.375,5.887 12.954,5.887 2.918,0 3.062,-0.047 4.851,-1.98 1.649,-1.789 1.836,-2.211 1.836,-4.473 0,-3.957 -1.129,-5.18 -9.183,-9.984 -7.915,-4.758 -9.512,-6.028 -11.961,-9.657 -3.77,-5.508 -4.43,-7.91 -3.344,-11.82 l 0.469,-1.648 6.218,-1.036 c 11.254,-1.836 15.633,-3.957 16.907,-8.148 0.472,-1.602 0.421,-2.023 -0.567,-3.816 -2.543,-4.52 -4.992,-4.848 -19.496,-2.778 z"
         style="fill:#000000;fill-opacity:1;fill-rule:nonzero;stroke:none"
         id="path22"
         inkscape:connector-curvature="0" /><path
         d="m 134.031,318.648 c -20.676,0.942 -27.508,2.969 -31.179,9.137 -2.403,4.098 -0.707,8.949 3.531,10.125 2.781,0.754 5.324,0.567 11.117,-0.941 4.66,-1.223 7.156,-1.555 16.293,-2.117 5.887,-0.332 10.973,-0.754 11.211,-0.899 0.66,-0.422 1.789,0.145 2.164,1.039 0.191,0.422 0.613,2.778 0.941,5.227 0.52,3.484 0.567,5.558 0.145,9.703 l -0.52,5.273 -3.531,0.328 c -1.933,0.145 -5.465,0.286 -7.82,0.286 -6.449,0.046 -15.492,0.847 -18.789,1.695 -6.828,1.742 -10.364,4.332 -13.567,9.937 -3.484,6.075 -4.332,12.149 -3.058,21.571 0.941,6.64 1.41,8.429 2.918,10.453 1.601,2.074 3.769,3.297 8.008,4.43 3.484,0.894 5.273,0.941 28.445,1.035 23.879,0.093 24.867,0.14 28.398,1.175 11.071,3.11 14.602,8.715 18.793,29.766 1.035,5.18 1.082,6.406 1.082,28.117 0,22.278 0,22.7 0.989,24.02 1.273,1.695 4.289,2.683 7.019,2.308 6.5,-0.992 8.664,-6.832 8.055,-21.714 -0.332,-7.957 -2.781,-34.946 -3.629,-40.5 -1.317,-8.196 -4.426,-16.11 -9.891,-25.293 -4.004,-6.735 -6.922,-9.559 -11.82,-11.586 -8.195,-3.391 -17.613,-4 -41.773,-2.684 l -15.684,0.895 -1.977,-1.036 c -2.828,-1.554 -4.664,-4.378 -4.898,-7.582 -0.145,-2.168 0.047,-3.062 1.176,-5.179 1.695,-3.297 2.875,-4.098 7.207,-5.039 3.058,-0.66 8.097,-0.707 38.664,-0.614 l 35.137,0.141 2.117,-1.602 c 3.39,-2.589 6.875,-7.347 7.961,-10.832 1.269,-4.191 1.976,-12.246 1.41,-17.097 -1.176,-9.934 -5.602,-15.727 -14.27,-18.461 -10.406,-3.297 -34.379,-4.66 -60.375,-3.485 z m 46.532,16.438 c 9.085,0.66 10.406,0.941 12.48,3.012 1.695,1.699 1.695,1.746 1.836,6.218 0.187,5.039 -0.52,7.723 -2.496,9.61 -1.086,0.988 -1.742,1.129 -9.043,1.457 -4.379,0.191 -10.879,0.238 -14.508,0.094 l -6.594,-0.282 -0.14,-10.312 -0.094,-10.27 h 5.746 c 3.203,0 8.949,0.239 12.813,0.473 z"
         style="fill:#000000;fill-opacity:1;fill-rule:nonzero;stroke:none"
         id="path24"
         inkscape:connector-curvature="0" /><g
         id="g26"><path
           d="m 5.625,35.625 c 0,-30 30,-30 30,-30"
           style="fill:none;stroke:#000000;stroke-width:11.25;stroke-linecap:butt;stroke-linejoin:miter;stroke-miterlimit:4;stroke-dasharray:none;stroke-opacity:1"
           id="path28"
           inkscape:connector-curvature="0" /></g><g
         id="g30"><path
           d="m 499.516,35.625 c 0,-30 -30,-30 -30,-30"
           style="fill:none;stroke:#000000;stroke-width:11.25;stroke-linecap:butt;stroke-linejoin:miter;stroke-miterlimit:4;stroke-dasharray:none;stroke-opacity:1"
           id="path32"
           inkscape:connector-curvature="0" /></g><g
         id="g34"><path
           d="m 5.805,470.625 c 0,30 30,30 30,30"
           style="fill:none;stroke:#000000;stroke-width:11.25;stroke-linecap:butt;stroke-linejoin:miter;stroke-miterlimit:4;stroke-dasharray:none;stroke-opacity:1"
           id="path36"
           inkscape:connector-curvature="0" /></g><g
         id="g38"><path
           d="m 499.457,470.57 c 0,30 -30,30 -30,30"
           style="fill:none;stroke:#000000;stroke-width:11.25;stroke-linecap:butt;stroke-linejoin:miter;stroke-miterlimit:4;stroke-dasharray:none;stroke-opacity:1"
           id="path40"
           inkscape:connector-curvature="0" /></g><g
         id="g42"><path
           d="M 35.352,5.625 H 471.016"
           style="fill:none;stroke:#000000;stroke-width:11.25;stroke-linecap:butt;stroke-linejoin:miter;stroke-miterlimit:4;stroke-dasharray:none;stroke-opacity:1"
           id="path44"
           inkscape:connector-curvature="0" /></g><g
         id="g46"><path
           d="M 34.813,500.598 H 470.477"
           style="fill:none;stroke:#000000;stroke-width:11.25;stroke-linecap:butt;stroke-linejoin:miter;stroke-miterlimit:4;stroke-dasharray:none;stroke-opacity:1"
           id="path48"
           inkscape:connector-curvature="0" /></g><g
         id="g50"><path
           d="M 5.625,35.625 V 471.289"
           style="fill:none;stroke:#000000;stroke-width:11.25;stroke-linecap:butt;stroke-linejoin:miter;stroke-miterlimit:4;stroke-dasharray:none;stroke-opacity:1"
           id="path52"
           inkscape:connector-curvature="0" /></g><g
         id="g54"><path
           d="M 499.539,35.109 V 470.77"
           style="fill:none;stroke:#000000;stroke-width:11.25;stroke-linecap:butt;stroke-linejoin:miter;stroke-miterlimit:4;stroke-dasharray:none;stroke-opacity:1"
           id="path56"
           inkscape:connector-curvature="0" /></g></g></g></svg>